<svg width="44" height="44" viewBox="0 0 44 44" fill="none" xmlns="http://www.w3.org/2000/svg">
<path d="M43.9877 27.1414C43.9303 25.9637 43.6672 24.8187 43.1193 23.8058C42.1884 22.0856 40.5143 20.8617 38.6324 20.3706C35.8209 19.6371 33.6633 21.0732 32.5702 21.2544C32.541 14.3228 34.7209 7.53209 38.8182 1.91357C39.0975 1.5303 39.1267 1.01812 38.892 0.607344C38.6555 0.19485 38.2014 -0.0406158 37.7301 0.00578982C23.409 1.44093 12.9523 10.9919 10.9095 23.8789C10.5103 23.7689 10.1282 23.6194 9.77343 23.432C8.94396 23.0814 8.03233 22.8889 7.07446 22.8889C4.98583 22.8889 2.97368 23.8497 1.65539 25.4744C-1.78935 29.7198 0.703369 36.5926 4.02298 40.1238C6.20391 42.4439 9.20985 44 12.4296 44C17.5862 44 21.9392 40.1155 23.7762 35.4832C24.8332 32.8178 25.3583 29.3317 23.9922 26.6807C22.8418 24.4483 20.5246 22.976 18.02 22.8929C17.9417 22.8903 17.8633 22.8889 17.7847 22.8889C16.8269 22.8889 15.9151 23.0814 15.0858 23.432C14.5493 23.7156 13.9548 23.9133 13.3225 24.0129C15.1679 13.1351 23.618 4.89728 35.3566 2.76778C31.9619 8.28489 30.1643 14.6562 30.1712 21.1478C29.7461 21.0361 29.3417 20.8797 28.9665 20.6821C28.137 20.3314 27.2254 20.1389 26.2675 20.1389C24.4305 20.1389 22.7614 20.8522 21.5155 22.0141C21.7575 21.7884 24.4927 23.6845 25.6295 26.1287C26.4174 27.8225 26.6044 30.27 26.3534 32.3644C25.9461 35.7646 24.2884 38.3956 24.2641 38.3748C26.3187 40.1434 28.8635 41.2502 31.6226 41.2502C36.8545 41.2502 41.2534 37.2562 43.0467 32.5337C43.6624 30.9121 44.0778 28.9868 43.9877 27.1414ZM5.91757 31.6252C4.59292 31.6252 3.51852 30.5475 3.51852 29.219C3.51852 27.8904 4.59292 26.8127 5.91757 26.8127C7.24222 26.8127 8.31661 27.8904 8.31661 29.219C8.31661 30.5475 7.24222 31.6252 5.91757 31.6252Z" fill="black"/>
</svg>
