<svg width="375" height="70" viewBox="0 0 375 70" fill="none" xmlns="http://www.w3.org/2000/svg">
<path d="M0 0L4.45312 3.88889C8.93229 7.77778 17.9687 15.5556 26.8229 18.1562C35.7031 20.6597 44.5312 18.2292 53.6458 25.934C62.5 33.7847 71.3542 51.7708 80.4687 60.934C89.2969 70 98.1771 70 107.031 64.8229C116.068 59.5486 125 49.3403 133.854 47.9549C142.865 46.6667 151.823 54.4444 160.677 54.4444C169.635 54.4444 178.646 46.6667 187.5 44.066C196.432 41.5625 205.469 43.9931 214.323 44.066C223.203 43.9931 232.031 41.5625 241.146 40.1771C250 38.8889 258.854 38.8889 267.969 35C276.797 31.1111 285.677 23.3333 294.531 25.934C303.568 28.4375 312.5 41.5625 321.354 37.6007C330.365 33.7847 339.323 12.8819 348.177 7.77778C357.135 2.67361 366.146 12.8819 370.573 18.1562L375 23.3333V70H370.547C366.068 70 357.031 70 348.177 70C339.297 70 330.469 70 321.354 70C312.5 70 303.646 70 294.531 70C285.703 70 276.823 70 267.969 70C258.932 70 250 70 241.146 70C232.135 70 223.177 70 214.323 70C205.365 70 196.354 70 187.5 70C178.568 70 169.531 70 160.677 70C151.797 70 142.969 70 133.854 70C125 70 116.146 70 107.031 70C98.2031 70 89.3229 70 80.4687 70C71.4323 70 62.5 70 53.6458 70C44.6354 70 35.6771 70 26.8229 70C17.8646 70 8.85417 70 4.42708 70H0V0Z" fill="#355070"/>
</svg>
