<svg width="1440" height="201" viewBox="0 0 1440 201" fill="none" xmlns="http://www.w3.org/2000/svg">
<path d="M0 0L17.1 11.1667C34.3 22.3333 69 44.6667 103 52.1344C137.1 59.3229 171 52.3438 206 74.4677C240 97.0104 274 148.656 309 174.968C342.9 201 377 201 411 186.134C445.7 170.99 480 141.677 514 137.699C548.6 134 583 156.333 617 156.333C651.4 156.333 686 134 720 126.532C754.3 119.344 789 126.323 823 126.532C857.1 126.323 891 119.344 926 115.366C960 111.667 994 111.667 1029 100.5C1062.9 89.3333 1097 67 1131 74.4677C1165.7 81.6562 1200 119.344 1234 107.968C1268.6 97.0104 1303 36.9896 1337 22.3333C1371.4 7.67708 1406 36.9896 1423 52.1344L1440 67V201H1422.9C1405.7 201 1371 201 1337 201C1302.9 201 1269 201 1234 201C1200 201 1166 201 1131 201C1097.1 201 1063 201 1029 201C994.3 201 960 201 926 201C891.4 201 857 201 823 201C788.6 201 754 201 720 201C685.7 201 651 201 617 201C582.9 201 549 201 514 201C480 201 446 201 411 201C377.1 201 343 201 309 201C274.3 201 240 201 206 201C171.4 201 137 201 103 201C68.6 201 34 201 17 201H0V0Z" fill="#355070"/>
</svg>
