<svg width="166" height="137" viewBox="0 0 166 137" fill="none" xmlns="http://www.w3.org/2000/svg">
<path d="M93.6522 121.773C88.4772 129.171 77.5228 129.171 72.3478 121.773L25.4273 54.7019C19.3995 46.0854 25.5639 34.25 36.0795 34.25L129.921 34.25C140.436 34.25 146.6 46.0854 140.573 54.7019L93.6522 121.773Z" fill="#355070"/>
<path d="M80.1766 59C80.1766 59 79.8167 59.7212 79.4921 60.6306C79.1745 61.5408 78.8287 62.6116 78.984 63.5964C79.1392 64.5492 79.7602 65.4203 80.3248 66.1516C80.3318 66.1661 80.3389 66.1733 80.353 66.1806C80.353 66.1733 80.36 66.1661 80.3671 66.1588C80.6211 65.7968 80.8893 65.4493 81.1716 65.1379C80.7129 64.5087 80.2965 63.7673 80.2401 63.3871C80.1695 62.9375 80.3953 61.9093 80.6917 61.0781C80.9881 60.2461 81.3057 59.5843 81.3057 59.5843L80.1766 59ZM85.8291 59.0123L84.7 59.5974C84.7 59.5974 85.0175 60.2592 85.3139 61.0911C85.6103 61.9223 85.8361 62.9505 85.7656 63.4002C85.7091 63.7723 85.2998 64.4993 84.8482 65.1234C85.1375 65.442 85.4057 65.7968 85.6668 66.1661L85.6738 66.1588C86.2384 65.4348 86.8664 64.563 87.0217 63.6094C87.1769 62.6247 86.8311 61.5538 86.5136 60.6436C86.189 59.7342 85.8291 59.013 85.8291 59.013V59.0123ZM70.7473 65.1814L70.4085 66.4412C70.4085 66.4412 71.4769 66.7453 72.7034 67.1798C73.8819 67.5925 75.2086 68.179 75.7378 68.5772C76.8458 70.8001 78.0242 72.0528 80.1131 74.2032C80.106 74.1019 80.106 74.0077 80.106 73.9208C80.106 73.4647 80.1131 72.9578 80.1977 72.4293C78.6029 70.7712 77.7067 69.714 76.7964 67.8387L76.7328 67.7084L76.627 67.6215C75.7943 66.9336 74.39 66.3978 73.1198 65.9489C71.8488 65.4927 70.7473 65.1814 70.7473 65.1814V65.1814ZM95.2499 65.1814C95.2499 65.1814 94.149 65.4927 92.8788 65.9489C91.6086 66.3978 90.2043 66.9336 89.3716 67.6215L89.2657 67.7084L89.2022 67.8387C88.2919 69.7213 87.4027 70.7712 85.8008 72.4365C85.8855 72.9651 85.8926 73.4647 85.8926 73.9208C85.8926 74.0077 85.8926 74.1091 85.8855 74.2105C87.9743 72.06 89.1528 70.8001 90.2607 68.5772C90.79 68.179 92.1167 67.5925 93.2952 67.1798C94.5231 66.7453 95.5886 66.4412 95.5886 66.4412L95.2499 65.1814ZM82.9922 65.3117C82.9993 65.3189 82.7311 65.4131 82.4206 65.6954C82.096 65.9923 81.7291 66.434 81.3974 66.9119C81.0657 67.3898 80.7623 67.9111 80.5576 68.36C80.3459 68.8017 80.2471 69.2144 80.2471 69.2868C80.2471 69.3592 80.2965 69.5113 80.4659 69.714C80.6282 69.9095 80.8964 70.1267 81.2069 70.3222C81.8279 70.706 82.6465 70.9522 82.9993 70.9522C83.3521 70.9522 84.1707 70.706 84.7917 70.3222C85.1022 70.1267 85.3704 69.9095 85.5327 69.714C85.7021 69.5113 85.7514 69.3592 85.7514 69.2868C85.7514 69.2072 85.6597 68.8017 85.4551 68.36C85.2575 67.9111 84.9611 67.4042 84.6365 66.9264C84.3119 66.4557 83.952 66.014 83.6273 65.7172C83.3098 65.4275 83.0346 65.3189 82.9922 65.3117V65.3117ZM81.6091 71.9659C81.3692 72.5741 81.3762 73.1823 81.3762 73.9208C81.3762 74.3915 81.5103 75.55 81.7785 76.6578C81.8914 77.1212 82.0396 77.5774 82.1948 77.9829C82.4559 77.9322 82.7241 77.9032 82.9993 77.9032C83.2745 77.9032 83.5427 77.9322 83.8038 77.9829C83.959 77.5774 84.1072 77.1212 84.2201 76.6578C84.4883 75.55 84.6224 74.3915 84.6224 73.9208C84.6224 73.1823 84.6294 72.5741 84.3895 71.9659C83.9167 72.1469 83.4439 72.2555 82.9993 72.2555C82.5547 72.2555 82.0819 72.1469 81.6091 71.9659V71.9659ZM74.6017 73.2692L74.4817 73.7615C73.3738 78.2942 71.1086 82.8848 69 85.0425L69.8976 85.9693C72.2165 83.5871 74.3829 79.1558 75.5685 74.6015C77.1069 74.7246 78.7229 75.3979 80.3812 76.2161C80.2683 75.6441 80.1907 75.1083 80.1483 74.6522C78.5182 73.8774 76.8458 73.2692 75.0957 73.2692H74.6017ZM90.9029 73.2692C89.1599 73.2692 87.4804 73.8846 85.8502 74.6522C85.8079 75.1083 85.7303 75.6441 85.6174 76.2234C87.2757 75.3979 88.8917 74.7246 90.4301 74.6015C91.6157 79.1558 93.7821 83.5871 96.0967 85.9693L97 85.0425C94.89 82.8848 92.6248 78.2942 91.5169 73.7615L91.3969 73.2692H90.9029ZM80.4588 76.5709C78.8993 78.077 77.3609 79.5613 75.9425 80.2854L75.5896 80.4664V80.8719C75.5896 85.3539 75.3497 86.8889 74.5452 89.7345L71.3549 91.9139L72.0612 93L75.639 90.5527L75.7026 90.321C76.5494 87.3595 76.8316 85.5928 76.8528 81.2556C78.2289 80.4664 79.5556 79.25 80.8329 78.0118C80.727 77.6715 80.6353 77.324 80.5506 76.9764C80.5153 76.8388 80.4871 76.7085 80.4588 76.5709ZM85.5397 76.5709C85.5115 76.7013 85.4833 76.8388 85.448 76.9764C85.3633 77.324 85.2716 77.6715 85.1657 78.0118C86.443 79.25 87.7697 80.4664 89.1458 81.2556C89.1599 85.5928 89.4492 87.3595 90.296 90.321L90.3595 90.5527L93.9373 93L94.643 91.9139L91.4533 89.7345C90.6489 86.8889 90.4089 85.3539 90.4089 80.8719V80.4664L90.0561 80.2926C88.6377 79.5686 87.1064 78.077 85.5397 76.5709V76.5709ZM82.9993 79.2065C82.0819 79.2065 81.0657 79.7061 80.3036 80.3578C79.9225 80.6836 79.605 81.0457 79.4003 81.357C79.1957 81.6756 79.1181 81.958 79.1181 82.0304C79.1181 84.9918 81.0375 89.1624 82.9993 91.4722C84.9611 89.1624 86.8805 84.9918 86.8805 82.0304C86.8805 81.958 86.8029 81.6756 86.5983 81.357C86.3936 81.0457 86.0761 80.6836 85.695 80.3578C84.9329 79.7061 83.9167 79.2065 82.9993 79.2065V79.2065Z" fill="white"/>
</svg>
